<?xml version="1.0" encoding="utf-8"?>
<!-- Generator: Adobe Illustrator 18.0.0, SVG Export Plug-In . SVG Version: 6.00 Build 0)  -->
<!DOCTYPE svg PUBLIC "-//W3C//DTD SVG 1.1//EN" "http://www.w3.org/Graphics/SVG/1.1/DTD/svg11.dtd">
<svg version="1.1" id="Layer_1" xmlns="http://www.w3.org/2000/svg" xmlns:xlink="http://www.w3.org/1999/xlink" x="0px" y="0px"
	 width="417px" height="45px" viewBox="0 0 417 45" style="enable-background:new 0 0 417 45;" xml:space="preserve">
<style type="text/css">
	.st0{fill:none;}
	.st1{fill:#FFFFFF;}
</style>
<g>
	<g>
		<g>
			<rect x="54.2" y="17.4" class="st0" width="378.8" height="36.6"/>
			<path class="st1" d="M55.7,18.5h21.2v6.9h-13V28h12.1V34H63.8v2.7H77v6.9H55.7V18.5z"/>
			<path class="st1" d="M79.2,18.5h9.5c9.9,0,14.8,4.9,14.8,12.4V31c0,7.4-5,12.7-15.1,12.7h-9.2V18.5z M88.9,36.4
				c3.8,0,6.2-1.6,6.2-5.2v-0.1c0-3.6-2.4-5.2-6.2-5.2h-1.4v10.5H88.9z"/>
			<path class="st1" d="M103,18.5h8.7l3.5,12.1l4-12.2h7.2l4,12.2l3.5-12.1h8.5l-8.1,25.4H127l-4.4-12.5l-4.4,12.5h-7.2L103,18.5z"
				/>
			<path class="st1" d="M147.9,18.3h8.2l10.5,25.4h-9l-1.3-3.4h-8.7l-1.3,3.4h-8.9L147.9,18.3z M154.2,34.3l-2.3-6.1l-2.3,6.1H154.2
				z"/>
			<path class="st1" d="M167.6,18.5h12.1c4.4,0,7.2,1.1,8.9,2.9c1.5,1.5,2.3,3.4,2.3,6v0.1c0,3.7-1.9,6.2-4.9,7.7l5.8,8.6h-9.5
				l-4.7-7.2h-0.1h-1.7v7.2h-8.3V18.5z M179.5,30.5c2,0,3.2-0.9,3.2-2.4V28c0-1.6-1.2-2.4-3.2-2.4h-3.6v4.9H179.5z"/>
			<path class="st1" d="M192.9,18.5h9.5c9.9,0,14.8,4.9,14.8,12.4V31c0,7.4-5,12.7-15.1,12.7h-9.2V18.5z M202.6,36.4
				c3.8,0,6.2-1.6,6.2-5.2v-0.1c0-3.6-2.4-5.2-6.2-5.2h-1.4v10.5H202.6z"/>
			<path class="st1" d="M217.1,39.9l4.4-5.4c2.7,2.1,5.8,3,8.7,3c1.5,0,2.1-0.4,2.1-1.1v-0.1c0-0.7-0.8-1.1-3.4-1.7
				c-5.6-1.2-10.5-2.8-10.5-8.1v-0.1c0-4.8,3.7-8.5,10.5-8.5c4.8,0,8.3,1.2,11.2,3.5l-4,5.7c-2.3-1.7-5.1-2.5-7.4-2.5
				c-1.2,0-1.8,0.4-1.8,1v0.1c0,0.7,0.7,1.1,3.3,1.6c6.3,1.2,10.6,3.1,10.6,8.1v0.1c0,5.3-4.3,8.5-11,8.5
				C224.8,44.2,220.3,42.7,217.1,39.9z"/>
			<path class="st1" d="M247.1,43.7V18.5h5.5v20.1h12.4v5H247.1z"/>
			<path class="st1" d="M287.5,43.7l-2.3-5.6h-10.5l-2.3,5.6h-5.6l10.6-25.4h5l10.6,25.4H287.5z M280,25l-3.3,8.2h6.6L280,25z"/>
			<path class="st1" d="M318.3,43.9h-4.8L308,27.4l-5.6,16.5h-4.8l-8.5-25.4h5.9l5.1,17.1l5.6-17.1h4.7l5.6,17.1l5.1-17.1h5.7
				L318.3,43.9z"/>
			<path class="st1" d="M341.3,23.5v5.4h11.8v5h-11.8v9.8h-5.5V18.5h18.9v5H341.3z"/>
			<path class="st1" d="M357.2,43.7V18.5h5.5v25.2H357.2z"/>
			<path class="st1" d="M381.8,43.7l-5.3-8.1h-4.3v8.1h-5.5V18.5h11.3c5.9,0,9.4,3.1,9.4,8.3v0.1c0,4.1-2.2,6.6-5.3,7.8l6.1,9H381.8
				z M381.9,27.1c0-2.4-1.6-3.6-4.3-3.6h-5.4v7.2h5.5C380.4,30.7,381.9,29.3,381.9,27.1L381.9,27.1z"/>
			<path class="st1" d="M410.4,43.7V27.2l-7,10.8h-0.1l-6.9-10.6v16.3H391V18.5h5.9l6.5,10.6l6.5-10.6h5.9v25.2H410.4z"/>
		</g>
		<g>
			<rect x="54.2" class="st0" width="41.2" height="17.4"/>
			<path class="st1" d="M61.8,3.3V14h-2.9V3.3h-4V0.6h11v2.7H61.8z"/>
			<path class="st1" d="M76,14V8.6h-5.4V14h-2.9V0.6h2.9v5.3H76V0.6h2.9V14H76z"/>
			<path class="st1" d="M80.9,14V0.6h10v2.6h-7.1v2.7h6.2v2.6h-6.2v2.8H91V14H80.9z"/>
		</g>
	</g>
	<polygon class="st1" points="0,0.6 0,9.9 28.2,9.9 28.2,19.3 10.6,19.3 10.6,22.8 27,22.8 27,31 10.6,31 10.6,34.8 28.5,34.8 
		28.5,43.7 42.5,43.7 42.5,0.6 	"/>
</g>
</svg>
