<?xml version="1.0" encoding="utf-8"?>
<!-- Generator: Adobe Illustrator 18.0.0, SVG Export Plug-In . SVG Version: 6.00 Build 0)  -->
<!DOCTYPE svg PUBLIC "-//W3C//DTD SVG 1.1//EN" "http://www.w3.org/Graphics/SVG/1.1/DTD/svg11.dtd">
<svg version="1.1" id="Layer_1" xmlns="http://www.w3.org/2000/svg" xmlns:xlink="http://www.w3.org/1999/xlink" x="0px" y="0px"
	 width="116px" height="116px" viewBox="0 0 116 116" enable-background="new 0 0 116 116" xml:space="preserve">
<path fill="#F1F9FB" d="M18,0C8.1,0,0,8.1,0,18s8.1,18,18,18s18-8.1,18-18S27.9,0,18,0z M22.8,18h-3.2c0,5,0,11.2,0,11.2H15
	c0,0,0-6.1,0-11.2h-2.2v-4H15v-2.6c0-1.8,0.9-4.7,4.7-4.7h3.5v3.9c0,0-2.1,0-2.5,0s-1,0.2-1,1.1V14h3.6L22.8,18z"/>
<path fill="#F1F9FB" d="M58,0c-9.9,0-18,8.1-18,18s8.1,18,18,18s18-8.1,18-18S67.9,0,58,0z M63.1,29.2c-0.8,0-5.2-0.1-6.3-0.1
	s-6.9-1.8-6.9-8.2c0-1.1,0-2.3,0-3.4s0-2.1,0-3.2c0-0.3,0-0.6,0-0.9c0-1.6-0.1-3.4,0.4-5c0.4-1.2,1.3-1.7,2.5-1.7c2.8,0,3,2.9,3,5.7
	h8.1c1.3,0,2.2,1.3,2.2,3.3s-2.1,2.4-3.2,2.4h-7.3c0,1.2-0.1,2.2-0.1,2.8c0,1.3,0.5,2.6,3.6,2.6h4.3c1.1,0,2.7,0.8,2.7,3.1
	C66.2,29,63.9,29.2,63.1,29.2z"/>
<g>
	<path fill="#F1F9FB" d="M98,0c-9.9,0-18,8.1-18,18s8.1,18,18,18s18-8.1,18-18S107.9,0,98,0z M95.8,27.8c-0.8,0.2-1.6,0.3-2.4,0.3
		c-1,0-1.9-0.1-2.7-0.3c-1.7-0.4-2.9-1.2-3.5-2.2c-0.2-0.4-0.4-0.9-0.4-1.4s0.1-1,0.4-1.5c0.9-1.9,3.3-3.2,6-3.2h0.1
		c-0.2-0.4-0.3-0.8-0.3-1.2c0-0.2,0-0.4,0.1-0.6c-2.8-0.1-4.9-2.1-4.9-4.8c0-1.9,1.5-3.8,3.7-4.5c0.7-0.2,1.3-0.3,2-0.3h6
		c0.2,0,0.4,0.1,0.4,0.3c0.1,0.2,0,0.4-0.2,0.5l-1.3,1C98.7,10,98.6,10,98.5,10H98c0.6,0.7,1,1.8,1,3c0,1.3-0.7,2.5-1.9,3.5
		c-0.9,0.7-1,0.9-1,1.3c0,0.2,0.7,1,1.4,1.5c1.7,1.2,2.3,2.3,2.3,4.3C99.7,25.3,98.1,27.1,95.8,27.8z M109.2,17.5
		c0,0.3-0.2,0.5-0.5,0.5h-3.4v3.4c0,0.3-0.2,0.5-0.5,0.5h-1c-0.3,0-0.5-0.2-0.5-0.5V18h-3.4c-0.3,0-0.5-0.2-0.5-0.5v-1
		c0-0.3,0.2-0.5,0.5-0.5h3.4v-3.4c0-0.3,0.2-0.5,0.5-0.5h1c0.3,0,0.5,0.2,0.5,0.5V16h3.4c0.3,0,0.5,0.2,0.5,0.5V17.5z"/>
	<path fill="#F1F9FB" d="M95.4,21.3c-0.1-0.1-0.3-0.2-0.4-0.3c-0.4-0.1-0.8-0.2-1.3-0.2h-0.1c-2,0-3.8,1.2-3.8,2.6
		c0,1.5,1.5,2.7,3.5,2.7c2.6,0,3.9-0.9,3.9-2.6c0-0.2,0-0.3-0.1-0.5C97,22.4,96.3,22,95.4,21.3z"/>
	<path fill="#F1F9FB" d="M94,16L94,16c0.5,0,0.9-0.2,1.2-0.6c0.5-0.6,0.7-1.5,0.6-2.5c-0.2-1.8-1.5-3.2-2.8-3.3h-0.1
		c-0.5,0-0.9,0.2-1.2,0.6c-0.5,0.6-0.7,1.4-0.6,2.4C91.4,14.4,92.6,16,94,16L94,16z"/>
</g>
<path fill="#59595B" d="M18,40C8.1,40,0,48.1,0,58s8.1,18,18,18s18-8.1,18-18S27.9,40,18,40z M22.8,58h-3.2c0,5,0,11.2,0,11.2H15
	c0,0,0-6.1,0-11.2h-2.2v-4H15v-2.6c0-1.8,0.9-4.7,4.7-4.7h3.5v3.9c0,0-2.1,0-2.5,0s-1,0.2-1,1.1V54h3.6L22.8,58z"/>
<path fill="#59595B" d="M58,40c-9.9,0-18,8.1-18,18s8.1,18,18,18s18-8.1,18-18S67.9,40,58,40z M63.1,69.2c-0.8,0-5.2-0.1-6.3-0.1
	s-6.9-1.8-6.9-8.2c0-1.1,0-2.3,0-3.4c0-1.1,0-2.1,0-3.2c0-0.3,0-0.6,0-0.9c0-1.6-0.1-3.4,0.4-5c0.4-1.2,1.3-1.7,2.5-1.7
	c2.8,0,3,2.9,3,5.7h8.1c1.3,0,2.2,1.3,2.2,3.3s-2.1,2.4-3.2,2.4h-7.3c0,1.2-0.1,2.2-0.1,2.8c0,1.3,0.5,2.6,3.6,2.6h4.3
	c1.1,0,2.7,0.8,2.7,3.1C66.2,69,63.9,69.2,63.1,69.2z"/>
<g>
	<path fill="#59595B" d="M98,40c-9.9,0-18,8.1-18,18s8.1,18,18,18s18-8.1,18-18S107.9,40,98,40z M95.8,67.8
		c-0.8,0.2-1.6,0.3-2.4,0.3c-1,0-1.9-0.1-2.7-0.3c-1.7-0.4-2.9-1.2-3.5-2.2c-0.2-0.4-0.4-0.9-0.4-1.4s0.1-1,0.4-1.5
		c0.9-1.9,3.3-3.2,6-3.2h0.1c-0.2-0.4-0.3-0.8-0.3-1.2c0-0.2,0-0.4,0.1-0.6c-2.8-0.1-4.9-2.1-4.9-4.8c0-1.9,1.5-3.8,3.7-4.5
		c0.7-0.2,1.3-0.3,2-0.3h6c0.2,0,0.4,0.1,0.4,0.3c0.1,0.2,0,0.4-0.2,0.5l-1.3,1C98.7,50,98.6,50,98.5,50H98c0.6,0.7,1,1.8,1,3
		c0,1.3-0.7,2.5-1.9,3.5c-0.9,0.7-1,0.9-1,1.3c0,0.2,0.7,1,1.4,1.5c1.7,1.2,2.3,2.3,2.3,4.3C99.7,65.3,98.1,67.1,95.8,67.8z
		 M109.2,57.5c0,0.3-0.2,0.5-0.5,0.5h-3.4v3.4c0,0.3-0.2,0.5-0.5,0.5h-1c-0.3,0-0.5-0.2-0.5-0.5V58h-3.4c-0.3,0-0.5-0.2-0.5-0.5v-1
		c0-0.3,0.2-0.5,0.5-0.5h3.4v-3.4c0-0.3,0.2-0.5,0.5-0.5h1c0.3,0,0.5,0.2,0.5,0.5V56h3.4c0.3,0,0.5,0.2,0.5,0.5V57.5z"/>
	<path fill="#59595B" d="M95.4,61.3c-0.1-0.1-0.3-0.2-0.4-0.3c-0.4-0.1-0.8-0.2-1.3-0.2h-0.1c-2,0-3.8,1.2-3.8,2.6
		c0,1.5,1.5,2.7,3.5,2.7c2.6,0,3.9-0.9,3.9-2.6c0-0.2,0-0.3-0.1-0.5C97,62.4,96.3,62,95.4,61.3z"/>
	<path fill="#59595B" d="M94,56L94,56c0.5,0,0.9-0.2,1.2-0.6c0.5-0.6,0.7-1.5,0.6-2.5c-0.2-1.8-1.5-3.2-2.8-3.3h-0.1
		c-0.5,0-0.9,0.2-1.2,0.6c-0.5,0.6-0.7,1.4-0.6,2.4C91.4,54.4,92.6,56,94,56L94,56z"/>
</g>
<path fill="#004E72" d="M18,80C8.1,80,0,88.1,0,98s8.1,18,18,18s18-8.1,18-18S27.9,80,18,80z M22.8,98h-3.2c0,5,0,11.2,0,11.2H15
	c0,0,0-6.1,0-11.2h-2.2v-4H15v-2.6c0-1.8,0.9-4.7,4.7-4.7h3.5v3.9c0,0-2.1,0-2.5,0s-1,0.2-1,1.1V94h3.6L22.8,98z"/>
<path fill="#004E72" d="M58,80c-9.9,0-18,8.1-18,18s8.1,18,18,18s18-8.1,18-18S67.9,80,58,80z M63.1,109.2c-0.8,0-5.2-0.1-6.3-0.1
	s-6.9-1.8-6.9-8.2c0-1.1,0-2.3,0-3.4c0-1.1,0-2.1,0-3.2c0-0.3,0-0.6,0-0.9c0-1.6-0.1-3.4,0.4-5c0.4-1.2,1.3-1.7,2.5-1.7
	c2.8,0,3,2.9,3,5.7h8.1c1.3,0,2.2,1.3,2.2,3.3s-2.1,2.4-3.2,2.4h-7.3c0,1.2-0.1,2.2-0.1,2.8c0,1.3,0.5,2.6,3.6,2.6h4.3
	c1.1,0,2.7,0.8,2.7,3.1C66.2,109,63.9,109.2,63.1,109.2z"/>
<g>
	<path fill="#004E72" d="M98,80c-9.9,0-18,8.1-18,18s8.1,18,18,18s18-8.1,18-18S107.9,80,98,80z M95.8,107.8
		c-0.8,0.2-1.6,0.3-2.4,0.3c-1,0-1.9-0.1-2.7-0.3c-1.7-0.4-2.9-1.2-3.5-2.2c-0.2-0.4-0.4-0.9-0.4-1.4s0.1-1,0.4-1.5
		c0.9-1.9,3.3-3.2,6-3.2h0.1c-0.2-0.4-0.3-0.8-0.3-1.2c0-0.2,0-0.4,0.1-0.6c-2.8-0.1-4.9-2.1-4.9-4.8c0-1.9,1.5-3.8,3.7-4.5
		c0.7-0.2,1.3-0.3,2-0.3h6c0.2,0,0.4,0.1,0.4,0.3c0.1,0.2,0,0.4-0.2,0.5l-1.3,1C98.7,90,98.6,90,98.5,90H98c0.6,0.7,1,1.8,1,3
		c0,1.3-0.7,2.5-1.9,3.5c-0.9,0.7-1,0.9-1,1.3c0,0.2,0.7,1,1.4,1.5c1.7,1.2,2.3,2.3,2.3,4.3C99.7,105.3,98.1,107.1,95.8,107.8z
		 M109.2,97.5c0,0.3-0.2,0.5-0.5,0.5h-3.4v3.4c0,0.3-0.2,0.5-0.5,0.5h-1c-0.3,0-0.5-0.2-0.5-0.5V98h-3.4c-0.3,0-0.5-0.2-0.5-0.5v-1
		c0-0.3,0.2-0.5,0.5-0.5h3.4v-3.4c0-0.3,0.2-0.5,0.5-0.5h1c0.3,0,0.5,0.2,0.5,0.5V96h3.4c0.3,0,0.5,0.2,0.5,0.5V97.5z"/>
	<path fill="#004E72" d="M95.4,101.3c-0.1-0.1-0.3-0.2-0.4-0.3c-0.4-0.1-0.8-0.2-1.3-0.2h-0.1c-2,0-3.8,1.2-3.8,2.6
		c0,1.5,1.5,2.7,3.5,2.7c2.6,0,3.9-0.9,3.9-2.6c0-0.2,0-0.3-0.1-0.5C97,102.4,96.3,102,95.4,101.3z"/>
	<path fill="#004E72" d="M94,96L94,96c0.5,0,0.9-0.2,1.2-0.6c0.5-0.6,0.7-1.5,0.6-2.5c-0.2-1.8-1.5-3.2-2.8-3.3h-0.1
		c-0.5,0-0.9,0.2-1.2,0.6c-0.5,0.6-0.7,1.4-0.6,2.4C91.4,94.4,92.6,96,94,96L94,96z"/>
</g>
</svg>
